<?xml version="1.0" standalone="no"?>
<svg xmlns="http://www.w3.org/2000/svg" viewBox="0 0 100.911 36" width="100.911" height="36"><g fill="#FFAD61" color="#FFAD61" transform="translate(0 6.333333333333332) scale(0.5833334)"><svg width="48.0" height="40.0" x="0.0" y="0.0" viewBox="0 0 48 40"><path fill="currentColor" fill-rule="evenodd" d="M41.576 0L12.872 28.703v-2.95L38.625 0h-4.1l-10.9 10.898L12.725 0h-4.1l12.949 12.95-1.476 1.474L5.675 0h-4.1l16.474 16.475-1.475 1.475L0 1.376V40h2.9V8.378l2.087 2.086V40h2.9V13.364l2.086 2.087V40h2.9v-.146l10.752-10.752L34.525 40h2.951V15.253l2.086-2.087V40h2.9V10.266l2.087-2.086V40h2.898V5.434h-.153l.153-.154V1.178L12.872 35.754v-2.95L45.675 0h-4.1zm-8.849 20l1.848-1.848v3.697L32.727 20zm-19.855-1.65L14.522 20l-1.65 1.65V18.35zm16.329 5.176l1.476-1.474 3.898 3.899v2.952l-5.374-5.377zm-3.526 3.526l1.475-1.476 7.425 7.426v2.95l-8.9-8.9z"></path></svg></g><path fill="#0C4237" fill-rule="nonzero" d="M3.11 8.44L3.11 18.39Q2.54 18.32 0.94 18.32L0.94 18.32L0 18.32L0 2.68Q0.75 2.73 1.65 2.73Q2.55 2.73 2.93 2.64L2.93 2.64L6.87 9.33L10.65 2.64Q11.03 2.73 12.08 2.73Q13.14 2.73 13.89 2.68L13.89 2.68L13.89 18.32L12.95 18.32Q11.34 18.32 10.78 18.39L10.78 18.39L10.78 7.89L6.95 14.74L3.11 8.44ZM19.95 4.48L17.31 2.58Q18.25 1.11 19.27 0L19.27 0L21.79 1.98Q21.28 2.60 20.85 3.20L20.85 3.20Q20.85 3.20 19.95 4.48L19.95 4.48ZM20.39 6.07L20.39 17.00Q20.39 18.01 20.44 18.32L20.44 18.32L17.46 18.32L17.46 6.07L20.39 6.07ZM26.78 10.13L26.78 16.82Q26.78 17.85 26.87 18.32L26.87 18.32L23.93 18.32L23.93 6.07L26.78 6.07L26.78 7.11Q28.32 5.84 30.08 5.84L30.08 5.84Q32.00 5.84 33.15 7.14Q34.30 8.45 34.30 10.58L34.30 10.58L34.30 15.25Q34.30 17.23 34.36 17.63Q34.42 18.02 34.52 18.14Q34.62 18.26 34.69 18.35L34.69 18.35L34.66 18.40Q33.71 18.32 33.28 18.32L33.28 18.32L32.46 18.32Q32.09 18.32 31.45 18.35L31.45 18.35L31.45 11.96Q31.45 8.53 29.37 8.53L29.37 8.53Q27.82 8.53 26.78 10.13L26.78 10.13ZM39.98 4.48L37.35 2.58Q38.29 1.11 39.30 0L39.30 0L41.82 1.98Q41.32 2.60 40.89 3.20L40.89 3.20Q40.89 3.20 39.98 4.48L39.98 4.48ZM40.43 6.07L40.43 17.00Q40.43 18.01 40.48 18.32L40.48 18.32L37.50 18.32L37.50 6.07L40.43 6.07ZM47.26 13.23L47.26 2.67Q47.99 2.73 48.32 2.73L48.32 2.73L49.23 2.73Q49.80 2.73 50.37 2.64L50.37 2.64L50.37 13.14Q50.37 15.71 49.00 17.19L49.00 17.19Q47.70 18.61 45.48 18.61L45.48 18.61Q43.96 18.61 42.93 18L42.93 18Q42.54 17.78 42.15 17.46L42.15 17.46L42.15 14.07L42.23 14.05Q42.73 14.82 43.39 15.32Q44.05 15.81 45.04 15.81L45.04 15.81Q47.26 15.81 47.26 13.23L47.26 13.23ZM63.52 3.60L63.52 3.60L63.29 7.04L63.21 7.07Q62.34 5.77 60.26 5.38L60.26 5.38Q59.60 5.25 59.00 5.25Q58.39 5.25 57.97 5.36Q57.54 5.46 57.23 5.66L57.23 5.66Q56.59 6.08 56.59 6.76L56.59 6.76Q56.59 7.65 57.15 8.10L57.15 8.10Q57.86 8.64 59.48 8.85Q61.11 9.07 62.10 9.45Q63.08 9.82 63.71 10.39L63.71 10.39Q64.91 11.47 64.91 13.44L64.91 13.44Q64.91 16.02 62.96 17.41L62.96 17.41Q61.30 18.61 58.77 18.61L58.77 18.61Q56.73 18.61 54.74 17.84L54.74 17.84Q54.08 17.58 53.59 17.24L53.59 17.24L53.72 13.32L53.77 13.29Q55.22 15.80 58.54 15.80L58.54 15.80Q60.89 15.80 61.65 14.66L61.65 14.66Q61.91 14.27 61.91 13.80Q61.91 13.32 61.76 13.01Q61.61 12.70 61.25 12.48L61.25 12.48Q60.57 12.04 58.97 11.88Q57.36 11.73 56.34 11.31Q55.32 10.89 54.71 10.27L54.71 10.27Q53.61 9.14 53.61 7.13L53.61 7.13Q53.61 5.04 55.08 3.75L55.08 3.75Q56.57 2.44 59.09 2.44Q61.62 2.44 63.52 3.60Z" transform="translate(36, 8.842)"></path></svg>